<?xml version="1.0" encoding="iso-8859-1"?>
<!-- Generator: Adobe Illustrator 19.0.0, SVG Export Plug-In . SVG Version: 6.00 Build 0)  -->
<svg version="1.1" id="Capa_1" xmlns="http://www.w3.org/2000/svg" xmlns:xlink="http://www.w3.org/1999/xlink" x="0px" y="0px"
	 viewBox="0 0 512.017 512.017" style="enable-background:new 0 0 512.017 512.017;" xml:space="preserve">
<g>
	<g>
		<rect x="196.267" y="213.338" width="119.467" height="85.333"/>
	</g>
</g>
<g>
	<g>
		<path d="M162.133,179.204v119.467H179.2v-93.867c0-4.71,3.823-8.533,8.533-8.533h136.533c4.71,0,8.533,3.823,8.533,8.533v93.867
			h17.067V179.204H162.133z"/>
	</g>
</g>
<g>
	<g>
		<path d="M503.467,0.004H8.533C3.823,0.004,0,3.827,0,8.538v375.467c0,4.71,3.823,8.533,8.533,8.533h168.661
			c10.155,23.501,19.072,57.011,19.072,102.4c0,2.739,1.314,5.316,3.55,6.921c2.227,1.604,5.077,2.022,7.689,1.178l21.641-7.211
			l22.127,14.754c1.434,0.956,3.081,1.434,4.736,1.434c1.656,0,3.302-0.478,4.736-1.434l22.127-14.754l21.641,7.211
			c2.594,0.845,5.461,0.435,7.689-1.178c2.227-1.604,3.55-4.181,3.55-6.921c0-45.389,8.917-78.899,19.072-102.4h168.661
			c4.71,0,8.533-3.823,8.533-8.533V8.538C512,3.827,508.177,0.004,503.467,0.004z M188.902,376.691
			c-5.581-11.358-11.315-20.241-16.256-26.82h29.158C199.185,359.59,194.859,368.644,188.902,376.691z M203.255,409.101
			c-1.186-1.937-2.449-3.831-3.558-5.828c-1.041-3.132-2.116-6.144-3.208-9.037c5.538-6.153,10.283-12.971,14.097-20.301
			c2.534,8.09,5.965,15.787,10.035,23.1C215.416,401.737,209.656,405.841,203.255,409.101z M269.483,425.707
			c4.489-4.361,8.636-9.054,12.416-14.037c5.222,4.446,10.94,8.363,17.101,11.674c-3.285,4.301-6.75,8.448-10.411,12.399
			C281.856,433.011,275.439,429.683,269.483,425.707z M275.465,448.61c-6.101,5.308-12.638,10.078-19.439,14.481
			c-6.827-4.403-13.38-9.173-19.482-14.49c6.878-3.285,13.363-7.185,19.456-11.614C262.093,441.425,268.587,445.325,275.465,448.61z
			 M279.287,383.415c-6.886-9.865-11.52-21.274-13.457-33.544h23.373C287.77,361.732,284.339,373.022,279.287,383.415z
			 M269.815,399.305c-4.096,5.666-8.713,10.923-13.815,15.684c-5.103-4.762-9.728-10.018-13.816-15.684
			c5.564-6.775,10.24-14.251,13.816-22.315C259.576,385.054,264.252,392.529,269.815,399.305z M232.713,383.415
			c-5.043-10.402-8.482-21.683-9.916-33.544h23.373C244.224,362.15,239.59,373.551,232.713,383.415z M230.101,411.669
			c3.78,4.983,7.927,9.677,12.416,14.037c-5.948,3.977-12.365,7.305-19.098,10.035c-3.669-3.959-7.125-8.098-10.411-12.399
			C219.17,420.032,224.887,416.115,230.101,411.669z M222.754,479.962l-9.609,3.2c-0.299-9.054-0.93-17.621-1.835-25.745
			c2.56-0.589,5.077-1.289,7.569-2.039c6.468,6.178,13.261,12.023,20.565,17.237C234.01,475.328,228.471,477.837,222.754,479.962z
			 M256,493.214l-8.448-5.632c2.859-1.434,5.692-2.927,8.465-4.497c2.765,1.57,5.598,3.046,8.448,4.48L256,493.214z
			 M298.854,483.162l-9.395-3.132c-5.786-2.15-11.375-4.685-16.853-7.415c7.287-5.205,14.063-11.042,20.523-17.229
			c2.492,0.751,5.009,1.442,7.569,2.039C299.793,465.549,299.153,474.116,298.854,483.162z M312.294,403.281
			c-1.109,1.988-2.364,3.883-3.558,5.828c-6.4-3.26-12.16-7.373-17.365-12.066c4.079-7.305,7.501-15.01,10.035-23.1
			c3.814,7.322,8.559,14.148,14.097,20.301C314.411,397.137,313.344,400.149,312.294,403.281z M323.098,376.691
			c-5.956-8.047-10.283-17.101-12.902-26.82h29.158C334.421,356.45,328.678,365.333,323.098,376.691z M469.333,358.404H354.509
			c5.393-6.963,9.233-10.402,9.353-10.513c2.756-2.304,3.78-6.076,2.56-9.455c-1.229-3.379-4.437-5.632-8.021-5.632H153.6
			c-3.576,0-6.758,2.244-7.996,5.606c-1.237,3.362-0.222,7.142,2.5,9.455c0.137,0.111,3.985,3.558,9.378,10.539H42.658
			c-4.71,0-8.533-3.823-8.533-8.533v-307.2c0-4.71,3.823-8.533,8.533-8.533h426.667c4.71,0,8.533,3.823,8.533,8.533l0.009,307.2
			C477.867,354.581,474.044,358.404,469.333,358.404z"/>
	</g>
</g>
<g>
	<g>
		<path d="M51.2,51.204v290.133H128v-34.133c0-4.71,3.823-8.533,8.533-8.533h8.533v-128c0-4.71,3.823-8.533,8.533-8.533h204.8
			c4.71,0,8.533,3.823,8.533,8.533v128h8.533c4.71,0,8.533,3.823,8.533,8.533v34.133h76.8V51.204H51.2z"/>
	</g>
</g>
<g>
</g>
<g>
</g>
<g>
</g>
<g>
</g>
<g>
</g>
<g>
</g>
<g>
</g>
<g>
</g>
<g>
</g>
<g>
</g>
<g>
</g>
<g>
</g>
<g>
</g>
<g>
</g>
<g>
</g>
</svg>
