<?xml version="1.0" encoding="iso-8859-1"?>
<!-- Generator: Adobe Illustrator 19.0.0, SVG Export Plug-In . SVG Version: 6.00 Build 0)  -->
<svg version="1.1" id="Capa_1" xmlns="http://www.w3.org/2000/svg" xmlns:xlink="http://www.w3.org/1999/xlink" x="0px" y="0px"
	 viewBox="0 0 350.913 350.913" style="enable-background:new 0 0 350.913 350.913;" xml:space="preserve">
<g>
	<g>
		<path d="M323.016,0.912c-0.246-0.704-1.013-1.079-1.72-0.84c-9.115,3.003-18.488,5.159-28,6.44c-11.302,1.65-22.804,1.339-34-0.92
			c-8.483-1.925-17.202-2.599-25.88-2c-7.271,0.424-14.359,2.445-20.76,5.92c-2.349,1.319-4.549,2.888-6.56,4.68
			c-1.973,1.773-3.743,3.758-5.28,5.92c-1.566,2.122-2.906,4.401-4,6.8c-1.074,2.46-1.904,5.019-2.48,7.64
			c-1.401,6.916-1.401,14.044,0,20.96c1.08,5.56,2.854,10.962,5.28,16.08c-13.217,11.654-22.915,26.769-28,43.64
			c-5.066-9.474-11.847-17.924-20-24.92c2.35-5.102,4.056-10.477,5.08-16c1.401-6.916,1.401-14.044,0-20.96
			c-0.577-2.621-1.407-5.18-2.48-7.64c-1.094-2.399-2.434-4.678-4-6.8c-1.537-2.162-3.307-4.147-5.28-5.92
			c-2.012-1.791-4.211-3.361-6.56-4.68c-6.4-3.476-13.489-5.497-20.76-5.92c-8.743-0.536-17.517,0.219-26.04,2.24
			c-11.196,2.259-22.698,2.571-34,0.92c-9.51-1.268-18.883-3.41-28-6.4c-0.694-0.214-1.434,0.156-1.68,0.84
			c-0.083,0.26-0.083,0.54,0,0.8c4.034,16.677,9.563,32.956,16.52,48.64c5.338,12.474,12.466,24.103,21.16,34.52h0
			c4.355,5.114,9.388,9.609,14.96,13.36c4.863,3.288,10.285,5.66,16,7c4.727,1.057,9.606,1.247,14.4,0.56
			c4.912-0.728,9.661-2.298,14.04-4.64c1.839-0.982,3.616-2.078,5.32-3.28c1.742-1.236,3.412-2.572,5-4
			c0.503-0.526,0.503-1.354,0-1.88h-0.2c-4.743-3.463-9.79-6.489-15.08-9.04c-5.12-2.52-10.28-4.64-15.36-6.76
			c-7.822-3.05-15.438-6.604-22.8-10.64c-7.658-4.301-14.508-9.905-20.24-16.56c-1.952-2.567-1.454-6.231,1.114-8.184
			c2.369-1.802,5.715-1.533,7.766,0.624c10.56,12.36,24.4,18.08,38.64,24c5.76,2.4,11.56,4.8,17.24,7.6
			c4.743,2.34,9.315,5.014,13.68,8c9.044,7.628,16.25,17.199,21.08,28c-20.031,2.531-38.999,10.453-54.88,22.92
			c4,14.12,14.04,22.88,23.28,30.8c11.56,9.24,21.64,17.76,22.08,33.44c0.2,11.68-5.48,18.68-11.8,26.4
			c-5.328,5.678-9.247,12.529-11.44,20c-0.593,4.925-0.673,9.898-0.24,14.84c0.44,11.24,0.92,24.28-3.28,34.12
			c-3.05,8.698-11.223,14.552-20.44,14.64c12.574,10.42,27.279,17.957,43.08,22.08c-1.653-11.271,3.409-22.472,12.96-28.68
			c10.48-7.68,28-2.48,46.16,2.96c13.44,4,27.44,8,36.6,6.76c31.762-23.918,48.499-62.855,44-102.36
			c-10.48-14.52-23.68-22.64-35.04-29.64c-21.84-13.44-37.96-23.36-26.96-58.16c-13.07-6.417-27.271-10.208-41.8-11.16
			c6.44-22.96,16.4-36.64,27.76-46.08c4.366-2.985,8.937-5.659,13.68-8c5.68-2.8,11.48-5.2,17.24-7.6c14.24-5.92,28-11.64,38.64-24
			c2.223-2.337,5.92-2.429,8.256-0.206c2.157,2.052,2.425,5.397,0.624,7.766c-5.733,6.654-12.582,12.258-20.24,16.56
			c-7.362,4.036-14.978,7.59-22.8,10.64c-5.12,2.12-10.24,4.24-15.36,6.76c-5.29,2.55-10.338,5.575-15.08,9.04h-0.2
			c-0.503,0.526-0.503,1.354,0,1.88c1.588,1.429,3.258,2.764,5,4c1.705,1.189,3.482,2.271,5.32,3.24
			c4.378,2.344,9.128,3.913,14.04,4.64c4.794,0.687,9.674,0.497,14.4-0.56c5.715-1.34,11.137-3.712,16-7
			c5.558-3.754,10.578-8.249,14.92-13.36c8.708-10.414,15.85-22.043,21.2-34.52c6.843-15.669,12.265-31.921,16.2-48.56
			C323.099,1.452,323.099,1.172,323.016,0.912z"/>
	</g>
</g>
<g>
	<g>
		<path d="M137.136,215.472c0-9.04-8-15.72-16.64-23.2c-9.48-8-20-17.04-25.56-31.2c-38.39,39.823-41.958,101.708-8.4,145.68
			c15.8,6.44,22.48,4,25-1.88c2.96-6.92,2.52-18.2,2.16-28c-0.559-6.243-0.344-12.53,0.64-18.72c2.609-9.526,7.48-18.281,14.2-25.52
			h0C133.136,227.032,137.256,221.952,137.136,215.472z"/>
	</g>
</g>
<g>
	<g>
		<path d="M202.176,335.352c-14.8-4.4-28.88-8.6-33.6-5.16c-6.456,4.424-8.968,12.742-6.04,20c4.276,0.484,8.577,0.724,12.88,0.72
			c16.135,0.045,32.088-3.407,46.76-10.12C215.656,339.352,208.936,337.352,202.176,335.352z"/>
	</g>
</g>
<g>
	<g>
		<path d="M237.816,145.592L237.816,145.592c-5.4,21.88,6.2,29.04,21.6,38.52c7.18,4.238,14.075,8.941,20.64,14.08
			C271.69,176.75,256.946,158.391,237.816,145.592z"/>
	</g>
</g>
<g>
</g>
<g>
</g>
<g>
</g>
<g>
</g>
<g>
</g>
<g>
</g>
<g>
</g>
<g>
</g>
<g>
</g>
<g>
</g>
<g>
</g>
<g>
</g>
<g>
</g>
<g>
</g>
<g>
</g>
</svg>
