<?xml version="1.0" encoding="utf-8"?>
<!-- Generator: Adobe Illustrator 19.0.0, SVG Export Plug-In . SVG Version: 6.00 Build 0)  -->
<svg version="1.1" id="Layer_1" xmlns="http://www.w3.org/2000/svg" xmlns:xlink="http://www.w3.org/1999/xlink" x="0px" y="0px"
	 viewBox="0 0 500 500" style="enable-background:new 0 0 500 500;" xml:space="preserve">
<style type="text/css">
	.st0{fill:#1A1918;}
</style>
<g id="XMLID_1_">
	<path id="XMLID_2_" class="st0" d="M189.2,210.9h22.3v80.6h-22.3V210.9z M223.3,291.5v-80.6h61.4v15.6h-39.1v16.6h36v15.6h-36v17.1
		h39.1v15.6H223.3z M297.2,291.5v-80.6h61.4v15.6h-39.1v16.6h35.9v15.6h-35.9v17.1h39.1v15.6H297.2z M371.1,291.5v-80.6h61.4v15.6
		h-39.1v16.6h35.9v15.6h-35.9v17.1h39.1v15.6H371.1z M118.4,259.3c-0.3,5.7-0.4,11-0.8,16.7c2.3,0.2,4.8,0.4,7.2,0.1l-0.7-15.9
		l-0.1-0.8C122.2,259.4,120.4,259.5,118.4,259.3z M104.4,243.3c-2.8,1.4-6.9,3.5-6.4,7.3c0.6,2.1,2.8,3.4,4.6,4.3
		c9.8,4.3,22.9,4.5,33.3,1.2c2.6-1,6-2.4,6.5-5.6c0-2.6-2.8-4.2-4.8-5.2v-0.1c0.7-0.3,1.5-0.5,2.2-0.6v-0.1
		c-3.5-0.6-6.8-1.5-10.2-2.4c0.6,1.5,1.1,3,1.7,4.6c1-0.3,2.1-0.6,3.1-0.7c1.8,0.7,4.3,1.7,4.6,3.9c0.2,2.1-2.1,3.1-3.5,3.9
		c-7.6,2.8-16.2,3-24.1,0.9c-2.2-0.7-5.4-1.6-5.6-4.4c1.6-3.7,5.6-4.4,9-5.3c-1.7-1.1-3.5-2.1-5.2-3.3
		C107.7,241.8,106,242.6,104.4,243.3z M121.2,221.1l-1,3.2l-4.9,14.2c1.2,0.1,2.8,0,4,0.1v0.1l-0.7,16l0.1,0.2
		c1.6,0.2,3.6,0.2,5.2,0v-0.3l-0.6-15.5l0.1-0.5l4.4-0.1c-2.2-5.7-4.3-11.5-6.3-17.3H121.2z M118.9,214c3.6-2.5,6.9,1,9.7,3
		c10.9,8.8,21.2,18.8,29,30.2c1,1.5,1.4,3.7,0.5,5.4c-2,3.4-4.8,6.5-7.4,9.6v0.2c-6.5,6.9-13.3,14-20.7,19.8c-3.6,2.2-6.9,7-11.6,4
		c-10.6-7.7-20.7-17.4-29.3-27.7c-1.5-2.3-3.7-4.1-4.7-6.7c-1.4-3.5,1.7-6,3.5-8.6C96.7,232.4,107.6,221.8,118.9,214z M128,203.6
		l-4-5.7c-0.5-0.3-1.1-0.8-1.7-0.9c-1.2-0.5-2.5,0.1-3.4,0.8l-7.3,9.5c-11.7,14.5-25.6,28-40.7,38.4c-1.2,0.9-3,1.8-3.3,3.4
		c-0.4,1.4,0.3,2.5,1.2,3.4c12.1,8.3,23.7,18.2,34,29.5c1.8,1.9,3.3,3.8,5.1,5.6c3,4,6.5,8,9.3,12.3c0.9,0.9,1,2.4,2.4,2.8
		c1.1,0.4,2.4,0.6,3.4,0l1-1c12.5-17.7,28.4-33.7,46.1-46.5c1.8-1.6,5.2-2.2,5.2-5.1c-0.1-1.4-0.9-2.7-2.1-3.4l-0.3,0
		c-9.1-6.2-17.6-13.2-25.7-21.2l-8.9-9.3C134.8,212.3,131.4,207.8,128,203.6z M117.6,211.8c3.6-2.8,8-0.5,11,2.1
		c3.1,2.4,6.4,5.1,9.3,7.9l0.5,0.3c7.9,7.4,15.3,15.6,21.4,24.2c1,1.5,1.9,3.2,1.3,5.2c-2,5.1-6.1,9.1-9.7,13.5
		c-7.8,8.4-16,16.4-25.1,22.9c-1.9,1.3-4.4,2.5-6.6,1.5c-6.8-3.5-12.4-9.3-18.4-14.6c-6.9-6.4-13.7-13.8-18.9-21.5
		c-0.8-1.1-1-2.4-1-3.9c0.7-2.7,2.5-4.9,4.2-7.1c6.1-7.8,13.7-15.2,21.2-22c0.2-0.2,0.5-0.5,0.8-0.7
		C110.9,216.7,114.2,214.2,117.6,211.8z"/>
</g>
</svg>
