<?xml version="1.0" encoding="iso-8859-1"?>
<!-- Generator: Adobe Illustrator 19.0.0, SVG Export Plug-In . SVG Version: 6.00 Build 0)  -->
<svg version="1.1" id="Capa_1" xmlns="http://www.w3.org/2000/svg" xmlns:xlink="http://www.w3.org/1999/xlink" x="0px" y="0px"
	 viewBox="0 0 512 512" style="enable-background:new 0 0 512 512;" xml:space="preserve">
<g>
	<g>
		<path d="M106.667,277.333h-64c-17.643,0-32,14.357-32,32V480c0,17.643,14.357,32,32,32h64c17.643,0,32-14.357,32-32V309.333
			C138.667,291.691,124.309,277.333,106.667,277.333z M85.333,469.333H64c-5.888,0-10.667-4.779-10.667-10.667S58.112,448,64,448
			h21.333C91.221,448,96,452.779,96,458.667S91.221,469.333,85.333,469.333z M85.333,426.667H64
			c-5.888,0-10.667-4.779-10.667-10.667c0-5.888,4.779-10.667,10.667-10.667h21.333C91.221,405.333,96,410.112,96,416
			C96,421.888,91.221,426.667,85.333,426.667z M85.333,384H64c-5.888,0-10.667-4.779-10.667-10.667
			c0-5.888,4.779-10.667,10.667-10.667h21.333c5.888,0,10.667,4.779,10.667,10.667C96,379.221,91.221,384,85.333,384z
			 M85.333,341.333H64c-5.888,0-10.667-4.779-10.667-10.667S58.112,320,64,320h21.333C91.221,320,96,324.779,96,330.667
			S91.221,341.333,85.333,341.333z"/>
	</g>
</g>
<g>
	<g>
		<path d="M469.333,277.333h-64c-17.643,0-32,14.357-32,32V480c0,17.643,14.357,32,32,32h64c17.643,0,32-14.357,32-32V309.333
			C501.333,291.691,486.976,277.333,469.333,277.333z M448,469.333h-21.333c-5.888,0-10.667-4.779-10.667-10.667
			S420.779,448,426.667,448H448c5.888,0,10.667,4.779,10.667,10.667S453.888,469.333,448,469.333z M448,426.667h-21.333
			c-5.888,0-10.667-4.779-10.667-10.667c0-5.888,4.779-10.667,10.667-10.667H448c5.888,0,10.667,4.779,10.667,10.667
			C458.667,421.888,453.888,426.667,448,426.667z M448,384h-21.333c-5.888,0-10.667-4.779-10.667-10.667
			c0-5.888,4.779-10.667,10.667-10.667H448c5.888,0,10.667,4.779,10.667,10.667C458.667,379.221,453.888,384,448,384z M448,341.333
			h-21.333c-5.888,0-10.667-4.779-10.667-10.667S420.779,320,426.667,320H448c5.888,0,10.667,4.779,10.667,10.667
			S453.888,341.333,448,341.333z"/>
	</g>
</g>
<g>
	<g>
		<rect x="309.333" y="256" width="21.333" height="21.333"/>
	</g>
</g>
<g>
	<g>
		<path d="M272.555,42.667c13.248,37.163,48.448,64,90.112,64c29.397,0,53.333-23.936,53.333-53.333S392.064,0,362.667,0h-85.333
			c-5.888,0-10.667,4.779-10.667,10.667c0,3.648,0.683,7.125,1.088,10.667h-23.488c0.384-3.541,1.067-7.019,1.067-10.667
			C245.333,4.779,240.555,0,234.667,0h-85.333C119.936,0,96,23.936,96,53.333s23.936,53.333,53.333,53.333
			c41.664,0,76.843-26.837,90.112-64h5.888v64h-10.667c-5.888,0-10.667,4.779-10.667,10.667V192h-96
			c-5.888,0-10.667,4.779-10.667,10.667v54.421c24.32,4.949,42.667,26.496,42.667,52.245V448h192V309.333
			c0-25.749,18.347-47.296,42.667-52.245v-54.421c0-5.888-4.779-10.667-10.667-10.667h-96v-74.667
			c0-5.888-4.779-10.667-10.667-10.667h-10.667v-64H272.555z M346.667,21.333c14.699,0,26.667,11.968,26.667,26.667
			s-11.968,26.667-26.667,26.667S320,62.699,320,48S331.968,21.333,346.667,21.333z M165.333,74.667
			c-14.699,0-26.667-11.968-26.667-26.667s11.968-26.667,26.667-26.667S192,33.301,192,48S180.032,74.667,165.333,74.667z
			 M288,245.333c0-5.888,4.779-10.667,10.667-10.667h42.667c5.888,0,10.667,4.779,10.667,10.667V288
			c0,5.888-4.779,10.667-10.667,10.667h-42.667c-5.888,0-10.667-4.779-10.667-10.667V245.333z M256,298.667h-85.333
			c-5.888,0-10.667-4.779-10.667-10.667s4.779-10.667,10.667-10.667H256c5.888,0,10.667,4.779,10.667,10.667
			S261.888,298.667,256,298.667z M256,256h-85.333c-5.888,0-10.667-4.779-10.667-10.667s4.779-10.667,10.667-10.667H256
			c5.888,0,10.667,4.779,10.667,10.667S261.888,256,256,256z"/>
	</g>
</g>
<g>
</g>
<g>
</g>
<g>
</g>
<g>
</g>
<g>
</g>
<g>
</g>
<g>
</g>
<g>
</g>
<g>
</g>
<g>
</g>
<g>
</g>
<g>
</g>
<g>
</g>
<g>
</g>
<g>
</g>
</svg>
